<svg width="134" height="55" viewBox="0 0 134 55" fill="none" xmlns="http://www.w3.org/2000/svg">
<rect width="134" height="55" rx="27.5" fill="#07BAC1"/>
<path d="M70.7415 27.9C70.7415 38.2938 61.8904 46.8 50.8707 46.8C39.851 46.8 31 38.2938 31 27.9C31 17.5062 39.851 9 50.8707 9C61.8904 9 70.7415 17.5062 70.7415 27.9Z" stroke="#785825" stroke-width="2"/>
<path d="M62.4902 27.9C62.4902 33.2351 61.117 38.018 58.9496 41.4359C56.7744 44.866 53.8933 46.8 50.8707 46.8C47.8481 46.8 44.9671 44.866 42.7919 41.4359C40.6245 38.018 39.2512 33.2351 39.2512 27.9C39.2512 22.5649 40.6245 17.7819 42.7919 14.3641C44.9671 10.934 47.8481 9 50.8707 9C53.8933 9 56.7744 10.934 58.9496 14.3641C61.117 17.7819 62.4902 22.5649 62.4902 27.9Z" stroke="#785825" stroke-width="2"/>
<line x1="30" y1="28.3561" x2="71.7415" y2="28.3561" stroke="#785825" stroke-width="2"/>
<line x1="50.8998" y1="8.47301" x2="51.3852" y2="47.7876" stroke="#785825" stroke-width="2"/>
<path d="M35.9935 15.5862C51.2675 20.2481 56.948 18.0226 66.0018 15.1174" stroke="#785825" stroke-width="2"/>
<path d="M67.1328 39.6589C53.1286 36.7311 46.2615 37.544 35.8647 40.2542" stroke="#785825" stroke-width="2"/>
<line y1="-1" x2="15.3895" y2="-1" transform="matrix(0.703938 0.710262 -0.547503 0.836804 82 23)" stroke="#785825" stroke-width="2"/>
<line y1="-1" x2="15.4069" y2="-1" transform="matrix(0.700181 -0.713966 0.55155 0.834142 92.8333 33.9999)" stroke="#785825" stroke-width="2"/>
</svg>
