<svg width="134" height="174" viewBox="0 0 134 174" fill="none" xmlns="http://www.w3.org/2000/svg">
<path d="M0 30C0 13.4315 13.4315 0 30 0H104C120.569 0 134 13.4315 134 30V134C134 156.091 116.091 174 94 174H40C17.9086 174 0 156.091 0 134V30Z" fill="#88DBDF"/>
<path d="M31.7717 160.896V158.816H38.8317V160.896H31.7717ZM31.7717 148.976V146.896H38.8317V148.976H31.7717ZM31.7717 154.416V152.376H38.4317V154.416H31.7717ZM30.3117 146.896H32.6317V160.896H30.3117V146.896ZM41.4775 157.876C41.7708 158.196 42.0642 158.476 42.3575 158.716C42.6642 158.943 42.9708 159.116 43.2775 159.236C43.5842 159.343 43.8908 159.396 44.1975 159.396C44.5842 159.396 44.8842 159.309 45.0975 159.136C45.3242 158.963 45.4375 158.723 45.4375 158.416C45.4375 158.149 45.3508 157.923 45.1775 157.736C45.0042 157.536 44.7642 157.369 44.4575 157.236C44.1508 157.089 43.7908 156.943 43.3775 156.796C42.9642 156.636 42.5508 156.449 42.1375 156.236C41.7375 156.009 41.4042 155.716 41.1375 155.356C40.8842 154.996 40.7575 154.543 40.7575 153.996C40.7575 153.436 40.8975 152.969 41.1775 152.596C41.4708 152.223 41.8575 151.949 42.3375 151.776C42.8308 151.589 43.3575 151.496 43.9175 151.496C44.4242 151.496 44.8975 151.569 45.3375 151.716C45.7908 151.863 46.1975 152.056 46.5575 152.296C46.9175 152.536 47.2242 152.809 47.4775 153.116L46.2775 154.396C45.9708 154.036 45.6042 153.743 45.1775 153.516C44.7508 153.289 44.3108 153.176 43.8575 153.176C43.5508 153.176 43.2975 153.243 43.0975 153.376C42.8975 153.509 42.7975 153.703 42.7975 153.956C42.7975 154.169 42.8842 154.363 43.0575 154.536C43.2442 154.696 43.4842 154.843 43.7775 154.976C44.0842 155.109 44.4242 155.249 44.7975 155.396C45.3042 155.596 45.7708 155.816 46.1975 156.056C46.6242 156.296 46.9642 156.589 47.2175 156.936C47.4842 157.283 47.6175 157.736 47.6175 158.296C47.6175 159.163 47.3175 159.863 46.7175 160.396C46.1308 160.916 45.3308 161.176 44.3175 161.176C43.6908 161.176 43.1108 161.083 42.5775 160.896C42.0575 160.696 41.5975 160.443 41.1975 160.136C40.8108 159.816 40.4842 159.483 40.2175 159.136L41.4775 157.876ZM51.134 165.296H48.954V151.696H51.134V165.296ZM58.754 156.296C58.754 157.309 58.5474 158.183 58.134 158.916C57.7207 159.636 57.174 160.189 56.494 160.576C55.814 160.949 55.074 161.136 54.274 161.136C53.4874 161.136 52.8007 160.943 52.214 160.556C51.6407 160.156 51.194 159.596 50.874 158.876C50.5674 158.143 50.414 157.283 50.414 156.296C50.414 155.296 50.5674 154.436 50.874 153.716C51.194 152.996 51.6407 152.443 52.214 152.056C52.8007 151.656 53.4874 151.456 54.274 151.456C55.074 151.456 55.814 151.649 56.494 152.036C57.174 152.409 57.7207 152.956 58.134 153.676C58.5474 154.396 58.754 155.269 58.754 156.296ZM56.514 156.296C56.514 155.683 56.3874 155.163 56.134 154.736C55.8807 154.296 55.5407 153.969 55.114 153.756C54.7007 153.529 54.2407 153.416 53.734 153.416C53.3207 153.416 52.914 153.529 52.514 153.756C52.114 153.969 51.7807 154.289 51.514 154.716C51.2607 155.143 51.134 155.669 51.134 156.296C51.134 156.923 51.2607 157.449 51.514 157.876C51.7807 158.303 52.114 158.629 52.514 158.856C52.914 159.069 53.3207 159.176 53.734 159.176C54.2407 159.176 54.7007 159.069 55.114 158.856C55.5407 158.629 55.8807 158.303 56.134 157.876C56.3874 157.436 56.514 156.909 56.514 156.296ZM61.6714 158.036C61.6714 158.343 61.7447 158.609 61.8914 158.836C62.0381 159.049 62.2381 159.209 62.4914 159.316C62.7581 159.423 63.0581 159.476 63.3914 159.476C63.8181 159.476 64.2047 159.389 64.5514 159.216C64.9114 159.043 65.1981 158.789 65.4114 158.456C65.6381 158.109 65.7514 157.709 65.7514 157.256L66.0714 158.456C66.0714 159.043 65.8981 159.536 65.5514 159.936C65.2181 160.323 64.7914 160.616 64.2714 160.816C63.7647 161.003 63.2447 161.096 62.7114 161.096C62.1381 161.096 61.6047 160.983 61.1114 160.756C60.6181 160.529 60.2247 160.196 59.9314 159.756C59.6381 159.316 59.4914 158.783 59.4914 158.156C59.4914 157.263 59.8047 156.556 60.4314 156.036C61.0581 155.503 61.9447 155.236 63.0914 155.236C63.7047 155.236 64.2314 155.303 64.6714 155.436C65.1247 155.569 65.4981 155.729 65.7914 155.916C66.0847 156.089 66.2914 156.249 66.4114 156.396V157.496C65.9981 157.203 65.5581 156.989 65.0914 156.856C64.6247 156.723 64.1314 156.656 63.6114 156.656C63.1581 156.656 62.7914 156.716 62.5114 156.836C62.2314 156.943 62.0181 157.096 61.8714 157.296C61.7381 157.496 61.6714 157.743 61.6714 158.036ZM60.9914 154.096L60.1114 152.576C60.5247 152.323 61.0581 152.076 61.7114 151.836C62.3781 151.596 63.1381 151.476 63.9914 151.476C64.7514 151.476 65.4181 151.589 65.9914 151.816C66.5781 152.043 67.0381 152.369 67.3714 152.796C67.7047 153.209 67.8714 153.723 67.8714 154.336V160.896H65.7514V154.756C65.7514 154.463 65.6981 154.223 65.5914 154.036C65.4981 153.849 65.3647 153.696 65.1914 153.576C65.0181 153.456 64.8114 153.369 64.5714 153.316C64.3314 153.263 64.0714 153.236 63.7914 153.236C63.3647 153.236 62.9581 153.289 62.5714 153.396C62.1981 153.489 61.8714 153.609 61.5914 153.756C61.3247 153.889 61.1247 154.003 60.9914 154.096ZM72.0495 151.696V160.896H69.8895V151.696H72.0495ZM75.8095 155.296C75.8095 154.616 75.6695 154.103 75.3895 153.756C75.1229 153.409 74.6895 153.236 74.0895 153.236C73.6895 153.236 73.3362 153.323 73.0295 153.496C72.7229 153.669 72.4829 153.909 72.3095 154.216C72.1362 154.523 72.0495 154.883 72.0495 155.296L71.3895 155.336C71.3895 154.603 71.5295 153.949 71.8095 153.376C72.1029 152.803 72.5029 152.349 73.0095 152.016C73.5295 151.669 74.1362 151.496 74.8295 151.496C75.8429 151.496 76.6295 151.796 77.1895 152.396C77.7495 152.996 78.0295 153.883 78.0295 155.056V160.896H75.8095V155.296ZM70.4295 149.316C70.4962 148.983 70.6362 148.689 70.8495 148.436C71.0629 148.183 71.3229 147.976 71.6295 147.816C71.9495 147.656 72.2762 147.576 72.6095 147.576C72.9429 147.576 73.2162 147.629 73.4295 147.736C73.6429 147.829 73.8295 147.943 73.9895 148.076C74.1495 148.209 74.3229 148.323 74.5095 148.416C74.6962 148.509 74.9229 148.556 75.1895 148.556C75.4029 148.556 75.6029 148.469 75.7895 148.296C75.9895 148.123 76.1895 147.876 76.3895 147.556L77.5095 148.676C77.4029 148.916 77.2362 149.156 77.0095 149.396C76.7829 149.636 76.5095 149.836 76.1895 149.996C75.8695 150.156 75.5295 150.236 75.1695 150.236C74.8095 150.236 74.4895 150.156 74.2095 149.996C73.9429 149.823 73.6829 149.656 73.4295 149.496C73.1895 149.323 72.9162 149.236 72.6095 149.236C72.3429 149.236 72.1362 149.303 71.9895 149.436C71.8562 149.556 71.7629 149.696 71.7095 149.856C71.6562 150.016 71.6295 150.149 71.6295 150.256L70.4295 149.316ZM79.588 156.296C79.588 155.349 79.8013 154.516 80.228 153.796C80.668 153.076 81.2613 152.516 82.008 152.116C82.7546 151.703 83.6013 151.496 84.548 151.496C85.4946 151.496 86.3346 151.703 87.068 152.116C87.8146 152.516 88.408 153.076 88.848 153.796C89.288 154.516 89.508 155.349 89.508 156.296C89.508 157.229 89.288 158.063 88.848 158.796C88.408 159.516 87.8146 160.083 87.068 160.496C86.3346 160.896 85.4946 161.096 84.548 161.096C83.6013 161.096 82.7546 160.896 82.008 160.496C81.2613 160.083 80.668 159.516 80.228 158.796C79.8013 158.063 79.588 157.229 79.588 156.296ZM81.808 156.296C81.808 156.869 81.928 157.376 82.168 157.816C82.408 158.243 82.7346 158.583 83.148 158.836C83.5613 159.076 84.028 159.196 84.548 159.196C85.0546 159.196 85.5146 159.076 85.928 158.836C86.3546 158.583 86.688 158.243 86.928 157.816C87.168 157.376 87.288 156.869 87.288 156.296C87.288 155.723 87.168 155.216 86.928 154.776C86.688 154.336 86.3546 153.996 85.928 153.756C85.5146 153.516 85.0546 153.396 84.548 153.396C84.028 153.396 83.5613 153.516 83.148 153.756C82.7346 153.996 82.408 154.336 82.168 154.776C81.928 155.216 81.808 155.723 81.808 156.296ZM91.0575 145.296H93.2175V160.896H91.0575V145.296Z" fill="#785825"/>
<path d="M31.0501 109.855H33.4101V123.855H31.0501V109.855ZM32.4501 111.935V109.855H35.2701C36.2834 109.855 37.1634 110.035 37.9101 110.395C38.6701 110.742 39.2567 111.242 39.6701 111.895C40.0834 112.535 40.2901 113.302 40.2901 114.195C40.2901 115.089 40.0834 115.862 39.6701 116.515C39.2567 117.169 38.6701 117.675 37.9101 118.035C37.1634 118.382 36.2834 118.555 35.2701 118.555H32.4501V116.475H35.2701C36.0834 116.475 36.7367 116.282 37.2301 115.895C37.7234 115.509 37.9701 114.942 37.9701 114.195C37.9701 113.449 37.7234 112.889 37.2301 112.515C36.7367 112.129 36.0834 111.935 35.2701 111.935H32.4501ZM40.6271 119.255C40.6271 118.309 40.8404 117.475 41.2671 116.755C41.7071 116.035 42.3004 115.475 43.0471 115.075C43.7937 114.662 44.6404 114.455 45.5871 114.455C46.5337 114.455 47.3737 114.662 48.1071 115.075C48.8537 115.475 49.4471 116.035 49.8871 116.755C50.3271 117.475 50.5471 118.309 50.5471 119.255C50.5471 120.189 50.3271 121.022 49.8871 121.755C49.4471 122.475 48.8537 123.042 48.1071 123.455C47.3737 123.855 46.5337 124.055 45.5871 124.055C44.6404 124.055 43.7937 123.855 43.0471 123.455C42.3004 123.042 41.7071 122.475 41.2671 121.755C40.8404 121.022 40.6271 120.189 40.6271 119.255ZM42.8471 119.255C42.8471 119.829 42.9671 120.335 43.2071 120.775C43.4471 121.202 43.7737 121.542 44.1871 121.795C44.6004 122.035 45.0671 122.155 45.5871 122.155C46.0937 122.155 46.5537 122.035 46.9671 121.795C47.3937 121.542 47.7271 121.202 47.9671 120.775C48.2071 120.335 48.3271 119.829 48.3271 119.255C48.3271 118.682 48.2071 118.175 47.9671 117.735C47.7271 117.295 47.3937 116.955 46.9671 116.715C46.5537 116.475 46.0937 116.355 45.5871 116.355C45.0671 116.355 44.6004 116.475 44.1871 116.715C43.7737 116.955 43.4471 117.295 43.2071 117.735C42.9671 118.175 42.8471 118.682 42.8471 119.255ZM54.2366 114.655V123.855H52.0966V114.655H54.2366ZM56.9766 116.955C56.7766 116.795 56.5899 116.675 56.4166 116.595C56.2433 116.515 56.0233 116.475 55.7566 116.475C55.3966 116.475 55.1033 116.569 54.8766 116.755C54.6499 116.942 54.4833 117.202 54.3766 117.535C54.2833 117.855 54.2366 118.235 54.2366 118.675L53.5166 118.255C53.5166 117.522 53.6499 116.875 53.9166 116.315C54.1966 115.742 54.5499 115.289 54.9766 114.955C55.4166 114.622 55.8699 114.455 56.3366 114.455C56.6699 114.455 56.9833 114.509 57.2766 114.615C57.5699 114.709 57.8166 114.882 58.0166 115.135L56.9766 116.955ZM57.719 114.655H62.939V116.555H57.719V114.655ZM59.259 111.455H61.399V123.855H59.259V111.455ZM66.1486 120.255C66.1486 120.909 66.2886 121.415 66.5686 121.775C66.8486 122.135 67.2753 122.315 67.8486 122.315C68.262 122.315 68.622 122.235 68.9286 122.075C69.2353 121.902 69.4753 121.662 69.6486 121.355C69.822 121.035 69.9086 120.669 69.9086 120.255V114.655H72.0686V123.855H69.9086V122.435C69.6153 122.969 69.2353 123.375 68.7686 123.655C68.3153 123.922 67.7686 124.055 67.1286 124.055C66.102 124.055 65.3086 123.735 64.7486 123.095C64.202 122.455 63.9286 121.589 63.9286 120.495V114.655H66.1486V120.255ZM73.8071 124.475H75.9471C75.9604 124.889 76.0737 125.262 76.2871 125.595C76.5137 125.929 76.8204 126.189 77.2071 126.375C77.5937 126.562 78.0404 126.655 78.5471 126.655C79.0004 126.655 79.4337 126.549 79.8471 126.335C80.2604 126.122 80.5937 125.795 80.8471 125.355C81.1137 124.915 81.2471 124.349 81.2471 123.655V114.655H83.3671V123.655C83.3671 124.762 83.1404 125.675 82.6871 126.395C82.2471 127.115 81.6671 127.649 80.9471 127.995C80.2271 128.355 79.4471 128.535 78.6071 128.535C77.6071 128.535 76.7537 128.362 76.0471 128.015C75.3404 127.682 74.7937 127.209 74.4071 126.595C74.0337 125.982 73.8337 125.275 73.8071 124.475ZM73.6271 119.215C73.6271 118.189 73.8337 117.329 74.2471 116.635C74.6604 115.929 75.2071 115.389 75.8871 115.015C76.5804 114.642 77.3204 114.455 78.1071 114.455C78.8804 114.455 79.5537 114.649 80.1271 115.035C80.7137 115.409 81.1737 115.949 81.5071 116.655C81.8537 117.362 82.0271 118.215 82.0271 119.215C82.0271 120.202 81.8537 121.049 81.5071 121.755C81.1737 122.462 80.7137 123.009 80.1271 123.395C79.5537 123.769 78.8804 123.955 78.1071 123.955C77.3204 123.955 76.5804 123.769 75.8871 123.395C75.2071 123.022 74.6604 122.482 74.2471 121.775C73.8337 121.069 73.6271 120.215 73.6271 119.215ZM75.8671 119.215C75.8671 119.829 75.9937 120.349 76.2471 120.775C76.5004 121.202 76.8337 121.529 77.2471 121.755C77.6737 121.969 78.1337 122.075 78.6271 122.075C79.0404 122.075 79.4471 121.969 79.8471 121.755C80.2604 121.542 80.5937 121.222 80.8471 120.795C81.1137 120.355 81.2471 119.829 81.2471 119.215C81.2471 118.735 81.1671 118.322 81.0071 117.975C80.8604 117.615 80.6604 117.315 80.4071 117.075C80.1537 116.822 79.8671 116.635 79.5471 116.515C79.2404 116.395 78.9337 116.335 78.6271 116.335C78.1337 116.335 77.6737 116.449 77.2471 116.675C76.8337 116.889 76.5004 117.209 76.2471 117.635C75.9937 118.062 75.8671 118.589 75.8671 119.215ZM87.7658 120.255C87.7658 120.909 87.9058 121.415 88.1858 121.775C88.4658 122.135 88.8925 122.315 89.4658 122.315C89.8792 122.315 90.2392 122.235 90.5458 122.075C90.8525 121.902 91.0925 121.662 91.2658 121.355C91.4392 121.035 91.5258 120.669 91.5258 120.255V114.655H93.6858V123.855H91.5258V122.435C91.2325 122.969 90.8525 123.375 90.3858 123.655C89.9325 123.922 89.3858 124.055 88.7458 124.055C87.7192 124.055 86.9258 123.735 86.3658 123.095C85.8192 122.455 85.5458 121.589 85.5458 120.495V114.655H87.7658V120.255ZM96.5243 119.755V118.275H102.304C102.251 117.835 102.131 117.455 101.944 117.135C101.771 116.802 101.524 116.549 101.204 116.375C100.884 116.189 100.491 116.095 100.024 116.095C99.5443 116.095 99.1109 116.202 98.7243 116.415C98.3376 116.615 98.0309 116.915 97.8043 117.315C97.5776 117.702 97.4643 118.162 97.4643 118.695L97.4243 119.255C97.4243 119.935 97.5309 120.502 97.7443 120.955C97.9709 121.395 98.2776 121.729 98.6643 121.955C99.0643 122.169 99.5243 122.275 100.044 122.275C100.471 122.275 100.844 122.215 101.164 122.095C101.498 121.975 101.791 121.809 102.044 121.595C102.298 121.369 102.511 121.109 102.684 120.815L104.544 121.575C104.238 122.069 103.884 122.502 103.484 122.875C103.098 123.249 102.618 123.542 102.044 123.755C101.484 123.955 100.784 124.055 99.9443 124.055C98.9976 124.055 98.1709 123.849 97.4643 123.435C96.7576 123.022 96.2109 122.455 95.8243 121.735C95.4376 121.002 95.2443 120.175 95.2443 119.255C95.2443 119.082 95.2509 118.915 95.2643 118.755C95.2776 118.595 95.2976 118.435 95.3243 118.275C95.4576 117.515 95.7243 116.849 96.1243 116.275C96.5376 115.702 97.0776 115.255 97.7443 114.935C98.4109 114.615 99.1776 114.455 100.044 114.455C100.991 114.455 101.804 114.649 102.484 115.035C103.178 115.409 103.711 115.949 104.084 116.655C104.458 117.349 104.644 118.182 104.644 119.155C104.644 119.235 104.644 119.329 104.644 119.435C104.644 119.529 104.631 119.635 104.604 119.755H96.5243ZM100.044 111.415L98.0043 113.255L96.5443 112.195L100.044 109.395L103.544 112.195L102.104 113.255L100.044 111.415ZM106.626 120.835C106.919 121.155 107.213 121.435 107.506 121.675C107.813 121.902 108.119 122.075 108.426 122.195C108.733 122.302 109.039 122.355 109.346 122.355C109.733 122.355 110.033 122.269 110.246 122.095C110.473 121.922 110.586 121.682 110.586 121.375C110.586 121.109 110.499 120.882 110.326 120.695C110.153 120.495 109.913 120.329 109.606 120.195C109.299 120.049 108.939 119.902 108.526 119.755C108.113 119.595 107.699 119.409 107.286 119.195C106.886 118.969 106.553 118.675 106.286 118.315C106.033 117.955 105.906 117.502 105.906 116.955C105.906 116.395 106.046 115.929 106.326 115.555C106.619 115.182 107.006 114.909 107.486 114.735C107.979 114.549 108.506 114.455 109.066 114.455C109.573 114.455 110.046 114.529 110.486 114.675C110.939 114.822 111.346 115.015 111.706 115.255C112.066 115.495 112.373 115.769 112.626 116.075L111.426 117.355C111.119 116.995 110.753 116.702 110.326 116.475C109.899 116.249 109.459 116.135 109.006 116.135C108.699 116.135 108.446 116.202 108.246 116.335C108.046 116.469 107.946 116.662 107.946 116.915C107.946 117.129 108.033 117.322 108.206 117.495C108.393 117.655 108.633 117.802 108.926 117.935C109.233 118.069 109.573 118.209 109.946 118.355C110.453 118.555 110.919 118.775 111.346 119.015C111.773 119.255 112.113 119.549 112.366 119.895C112.633 120.242 112.766 120.695 112.766 121.255C112.766 122.122 112.466 122.822 111.866 123.355C111.279 123.875 110.479 124.135 109.466 124.135C108.839 124.135 108.259 124.042 107.726 123.855C107.206 123.655 106.746 123.402 106.346 123.095C105.959 122.775 105.633 122.442 105.366 122.095L106.626 120.835Z" fill="#333333"/>
<path d="M33.887 86.815V84.735H40.947V86.815H33.887ZM33.887 74.895V72.815H40.947V74.895H33.887ZM33.887 80.335V78.295H40.547V80.335H33.887ZM32.427 72.815H34.747V86.815H32.427V72.815ZM49.0928 81.215C49.0928 80.535 48.9528 80.0217 48.6728 79.675C48.3928 79.3284 47.9595 79.155 47.3728 79.155C46.9728 79.155 46.6195 79.2417 46.3128 79.415C46.0061 79.575 45.7661 79.815 45.5928 80.135C45.4195 80.4417 45.3328 80.8017 45.3328 81.215V86.815H43.1728V77.615H45.3328V79.035C45.6261 78.4884 45.9995 78.0817 46.4528 77.815C46.9195 77.5484 47.4728 77.415 48.1128 77.415C49.1528 77.415 49.9461 77.735 50.4928 78.375C51.0395 79.0017 51.3128 79.8684 51.3128 80.975V86.815H49.0928V81.215ZM53.0512 87.435H55.1912C55.2046 87.8484 55.3179 88.2217 55.5312 88.555C55.7579 88.8884 56.0646 89.1484 56.4512 89.335C56.8379 89.5217 57.2846 89.615 57.7912 89.615C58.2446 89.615 58.6779 89.5084 59.0912 89.295C59.5046 89.0817 59.8379 88.755 60.0912 88.315C60.3579 87.875 60.4912 87.3084 60.4912 86.615V77.615H62.6112V86.615C62.6112 87.7217 62.3846 88.635 61.9312 89.355C61.4912 90.075 60.9112 90.6084 60.1912 90.955C59.4712 91.315 58.6912 91.495 57.8512 91.495C56.8512 91.495 55.9979 91.3217 55.2912 90.975C54.5846 90.6417 54.0379 90.1684 53.6512 89.555C53.2779 88.9417 53.0779 88.235 53.0512 87.435ZM52.8712 82.175C52.8712 81.1484 53.0779 80.2884 53.4912 79.595C53.9046 78.8884 54.4512 78.3484 55.1312 77.975C55.8246 77.6017 56.5646 77.415 57.3512 77.415C58.1246 77.415 58.7979 77.6084 59.3712 77.995C59.9579 78.3684 60.4179 78.9084 60.7512 79.615C61.0979 80.3217 61.2712 81.175 61.2712 82.175C61.2712 83.1617 61.0979 84.0084 60.7512 84.715C60.4179 85.4217 59.9579 85.9684 59.3712 86.355C58.7979 86.7284 58.1246 86.915 57.3512 86.915C56.5646 86.915 55.8246 86.7284 55.1312 86.355C54.4512 85.9817 53.9046 85.4417 53.4912 84.735C53.0779 84.0284 52.8712 83.175 52.8712 82.175ZM55.1112 82.175C55.1112 82.7884 55.2379 83.3084 55.4912 83.735C55.7446 84.1617 56.0779 84.4884 56.4912 84.715C56.9179 84.9284 57.3779 85.035 57.8712 85.035C58.2846 85.035 58.6912 84.9284 59.0912 84.715C59.5046 84.5017 59.8379 84.1817 60.0912 83.755C60.3579 83.315 60.4912 82.7884 60.4912 82.175C60.4912 81.695 60.4112 81.2817 60.2512 80.935C60.1046 80.575 59.9046 80.275 59.6512 80.035C59.3979 79.7817 59.1112 79.595 58.7912 79.475C58.4846 79.355 58.1779 79.295 57.8712 79.295C57.3779 79.295 56.9179 79.4084 56.4912 79.635C56.0779 79.8484 55.7446 80.1684 55.4912 80.595C55.2379 81.0217 55.1112 81.5484 55.1112 82.175ZM64.79 71.215H66.95V86.815H64.79V71.215ZM69.1319 73.955C69.1319 73.5817 69.2652 73.2684 69.5319 73.015C69.8119 72.7617 70.1319 72.635 70.4919 72.635C70.8785 72.635 71.1985 72.7617 71.4519 73.015C71.7185 73.2684 71.8519 73.5817 71.8519 73.955C71.8519 74.315 71.7185 74.6284 71.4519 74.895C71.1985 75.1484 70.8785 75.275 70.4919 75.275C70.1319 75.275 69.8119 75.1484 69.5319 74.895C69.2652 74.6284 69.1319 74.315 69.1319 73.955ZM69.4319 77.615H71.5519V86.815H69.4319V77.615ZM74.4444 83.795C74.7377 84.115 75.031 84.395 75.3244 84.635C75.631 84.8617 75.9377 85.035 76.2444 85.155C76.551 85.2617 76.8577 85.315 77.1644 85.315C77.551 85.315 77.851 85.2284 78.0644 85.055C78.291 84.8817 78.4044 84.6417 78.4044 84.335C78.4044 84.0684 78.3177 83.8417 78.1444 83.655C77.971 83.455 77.731 83.2884 77.4244 83.155C77.1177 83.0084 76.7577 82.8617 76.3444 82.715C75.931 82.555 75.5177 82.3684 75.1044 82.155C74.7044 81.9284 74.371 81.635 74.1044 81.275C73.851 80.915 73.7244 80.4617 73.7244 79.915C73.7244 79.355 73.8644 78.8884 74.1444 78.515C74.4377 78.1417 74.8244 77.8684 75.3044 77.695C75.7977 77.5084 76.3244 77.415 76.8844 77.415C77.391 77.415 77.8644 77.4884 78.3044 77.635C78.7577 77.7817 79.1644 77.975 79.5244 78.215C79.8844 78.455 80.191 78.7284 80.4444 79.035L79.2444 80.315C78.9377 79.955 78.571 79.6617 78.1444 79.435C77.7177 79.2084 77.2777 79.095 76.8244 79.095C76.5177 79.095 76.2644 79.1617 76.0644 79.295C75.8644 79.4284 75.7644 79.6217 75.7644 79.875C75.7644 80.0884 75.851 80.2817 76.0244 80.455C76.211 80.615 76.451 80.7617 76.7444 80.895C77.051 81.0284 77.391 81.1684 77.7644 81.315C78.271 81.515 78.7377 81.735 79.1644 81.975C79.591 82.215 79.931 82.5084 80.1844 82.855C80.451 83.2017 80.5844 83.655 80.5844 84.215C80.5844 85.0817 80.2844 85.7817 79.6844 86.315C79.0977 86.835 78.2977 87.095 77.2844 87.095C76.6577 87.095 76.0777 87.0017 75.5444 86.815C75.0244 86.615 74.5644 86.3617 74.1644 86.055C73.7777 85.735 73.451 85.4017 73.1844 85.055L74.4444 83.795ZM84.1609 71.215V86.815H82.0009V71.215H84.1609ZM87.9209 81.215C87.9209 80.535 87.7809 80.0217 87.5009 79.675C87.2343 79.3284 86.8009 79.155 86.2009 79.155C85.8009 79.155 85.4476 79.2417 85.1409 79.415C84.8343 79.5884 84.5943 79.8284 84.4209 80.135C84.2476 80.4417 84.1609 80.8017 84.1609 81.215H83.6409C83.6409 80.4817 83.7743 79.8284 84.0409 79.255C84.3076 78.6817 84.6809 78.2217 85.1609 77.875C85.6543 77.5284 86.2476 77.355 86.9409 77.355C87.6209 77.355 88.1943 77.4884 88.6609 77.755C89.1409 78.0217 89.5009 78.4217 89.7409 78.955C89.9809 79.475 90.1009 80.1284 90.1009 80.915V86.815H87.9209V81.215Z" fill="#785825"/>
<path d="M8.95894 117.339L12.2996 119.557" stroke="#333333" stroke-width="2"/>
<path d="M12.3717 120.785L18.6997 109.125" stroke="#333333" stroke-width="2"/>
<rect width="134" height="60.3468" rx="30.1734" fill="#07BAC1"/>
<path d="M54.2585 29.9229C54.2585 41.4821 44.8066 50.867 33.1293 50.867C21.452 50.867 12 41.4821 12 29.9229C12 18.3637 21.452 8.97876 33.1293 8.97876C44.8066 8.97876 54.2585 18.3637 54.2585 29.9229Z" stroke="#785825" stroke-width="2"/>
<path d="M45.5098 29.9229C45.5098 35.8296 44.0479 41.1291 41.7369 44.9191C39.4153 48.7266 36.3429 50.867 33.1293 50.867C29.9156 50.867 26.8432 48.7266 24.5216 44.9191C22.2107 41.1291 20.7488 35.8296 20.7488 29.9229C20.7488 24.0161 22.2107 18.7166 24.5216 14.9266C26.8432 11.1192 29.9156 8.97876 33.1293 8.97876C36.3429 8.97876 39.4153 11.1192 41.7369 14.9266C44.0479 18.7166 45.5098 24.0161 45.5098 29.9229Z" stroke="#785825" stroke-width="2"/>
<line x1="11" y1="30.5286" x2="55.2585" y2="30.5286" stroke="#785825" stroke-width="2"/>
<line y1="-1" x2="43.3564" y2="-1" transform="matrix(0.0118699 0.99993 -0.999918 0.0128386 32.0999 8.51392)" stroke="#785825" stroke-width="2"/>
<path d="M17.355 16.3442C33.55 21.485 39.5731 19.0309 49.1728 15.8272" stroke="#785825" stroke-width="2"/>
<path d="M50.3719 42.8897C35.5233 39.6612 28.242 40.5576 17.2183 43.5461" stroke="#785825" stroke-width="2"/>
<line y1="-1" x2="13.9436" y2="-1" transform="matrix(0.612915 0.790149 -0.455795 0.890085 105.943 26.511)" stroke="#785825" stroke-width="2"/>
<line y1="-1" x2="13.977" y2="-1" transform="matrix(0.608875 -0.793267 0.459613 0.888119 114.49 37.5984)" stroke="#785825" stroke-width="2"/>
</svg>
