<svg width="414" height="46" viewBox="0 0 414 46" fill="none" xmlns="http://www.w3.org/2000/svg">
<path d="M86.32 14.16V11.6H100.56V14.16H94.8V34H92.08V14.16H86.32ZM104.939 23.12V20.56H120.299V23.12H104.939ZM118.475 11.6H121.195V34H118.475V11.6ZM103.435 11.6H106.155V34H103.435V11.6ZM127.814 34V31.44H139.11V34H127.814ZM127.814 14.16V11.6H139.11V14.16H127.814ZM127.814 23.12V20.56H138.47V23.12H127.814ZM126.31 11.6H129.03V34H126.31V11.6ZM155.002 23.12V20.56H170.362V23.12H155.002ZM168.538 11.6H171.258V34H168.538V11.6ZM153.498 11.6H156.218V34H153.498V11.6ZM178.516 27.28L179.477 24.72H189.397L190.357 27.28H178.516ZM184.373 16.656L180.597 25.552L180.341 26.128L177.013 34H173.973L184.373 10.48L194.773 34H191.733L188.469 26.32L188.213 25.68L184.373 16.656ZM214.458 11.6H217.178V35.12L200.218 17.328V34H197.498V10.48L214.458 28.272V11.6ZM222.31 11.6H225.03V34H222.31V11.6ZM229.03 34H223.814V31.28H229.03C230.289 31.28 231.441 31.088 232.486 30.704C233.531 30.2987 234.427 29.7333 235.174 29.008C235.921 28.2613 236.497 27.3653 236.902 26.32C237.307 25.2747 237.51 24.1013 237.51 22.8C237.51 21.4987 237.307 20.3253 236.902 19.28C236.497 18.2347 235.921 17.3493 235.174 16.624C234.427 15.8773 233.531 15.312 232.486 14.928C231.441 14.5227 230.289 14.32 229.03 14.32H223.814V11.6H229.03C231.206 11.6 233.137 12.0693 234.822 13.008C236.507 13.9467 237.83 15.2587 238.79 16.944C239.75 18.608 240.23 20.56 240.23 22.8C240.23 25.04 239.75 27.0027 238.79 28.688C237.83 30.352 236.507 31.6533 234.822 32.592C233.137 33.5307 231.206 34 229.03 34ZM244.892 27.216C245.404 28.112 245.937 28.9013 246.492 29.584C247.068 30.2667 247.708 30.8 248.412 31.184C249.116 31.568 249.916 31.76 250.812 31.76C252.007 31.76 252.967 31.4293 253.692 30.768C254.417 30.1067 254.78 29.264 254.78 28.24C254.78 27.2373 254.545 26.4373 254.076 25.84C253.607 25.2427 252.988 24.7627 252.22 24.4C251.473 24.016 250.673 23.6747 249.82 23.376C249.265 23.184 248.647 22.9387 247.964 22.64C247.281 22.32 246.631 21.9253 246.012 21.456C245.393 20.9653 244.881 20.368 244.476 19.664C244.092 18.96 243.9 18.096 243.9 17.072C243.9 15.9627 244.177 14.9707 244.732 14.096C245.287 13.2213 246.055 12.5387 247.036 12.048C248.017 11.536 249.137 11.28 250.396 11.28C251.612 11.28 252.668 11.5147 253.564 11.984C254.481 12.432 255.26 13.0187 255.9 13.744C256.54 14.448 257.041 15.1947 257.404 15.984L255.068 17.328C254.791 16.7733 254.439 16.2293 254.012 15.696C253.585 15.1627 253.063 14.7253 252.444 14.384C251.847 14.0427 251.111 13.872 250.236 13.872C249.02 13.872 248.135 14.1707 247.58 14.768C247.025 15.344 246.748 15.9947 246.748 16.72C246.748 17.3387 246.908 17.9147 247.228 18.448C247.548 18.96 248.081 19.4507 248.828 19.92C249.596 20.368 250.631 20.816 251.932 21.264C252.529 21.4773 253.159 21.7547 253.82 22.096C254.481 22.4373 255.089 22.8747 255.644 23.408C256.22 23.92 256.689 24.5493 257.052 25.296C257.415 26.0213 257.596 26.896 257.596 27.92C257.596 28.9013 257.404 29.7867 257.02 30.576C256.657 31.3653 256.145 32.0373 255.484 32.592C254.844 33.1467 254.108 33.5733 253.276 33.872C252.465 34.1707 251.612 34.32 250.716 34.32C249.5 34.32 248.369 34.064 247.324 33.552C246.3 33.0187 245.393 32.3253 244.604 31.472C243.836 30.5973 243.207 29.6693 242.716 28.688L244.892 27.216ZM274.289 18.864L272.625 34H269.905L272.625 10.48L281.585 26.704L290.545 10.48L293.265 34H290.545L288.881 18.864L281.585 31.92L274.289 18.864ZM299.235 27.28L300.195 24.72H310.115L311.075 27.28H299.235ZM305.091 16.656L301.315 25.552L301.059 26.128L297.731 34H294.691L305.091 10.48L315.491 34H312.451L309.187 26.32L308.931 25.68L305.091 16.656ZM319.048 27.216C319.56 28.112 320.094 28.9013 320.648 29.584C321.224 30.2667 321.864 30.8 322.568 31.184C323.272 31.568 324.072 31.76 324.968 31.76C326.163 31.76 327.123 31.4293 327.848 30.768C328.574 30.1067 328.936 29.264 328.936 28.24C328.936 27.2373 328.702 26.4373 328.232 25.84C327.763 25.2427 327.144 24.7627 326.376 24.4C325.63 24.016 324.83 23.6747 323.976 23.376C323.422 23.184 322.803 22.9387 322.12 22.64C321.438 22.32 320.787 21.9253 320.168 21.456C319.55 20.9653 319.038 20.368 318.632 19.664C318.248 18.96 318.056 18.096 318.056 17.072C318.056 15.9627 318.334 14.9707 318.888 14.096C319.443 13.2213 320.211 12.5387 321.192 12.048C322.174 11.536 323.294 11.28 324.552 11.28C325.768 11.28 326.824 11.5147 327.72 11.984C328.638 12.432 329.416 13.0187 330.056 13.744C330.696 14.448 331.198 15.1947 331.56 15.984L329.224 17.328C328.947 16.7733 328.595 16.2293 328.168 15.696C327.742 15.1627 327.219 14.7253 326.6 14.384C326.003 14.0427 325.267 13.872 324.392 13.872C323.176 13.872 322.291 14.1707 321.736 14.768C321.182 15.344 320.904 15.9947 320.904 16.72C320.904 17.3387 321.064 17.9147 321.384 18.448C321.704 18.96 322.238 19.4507 322.984 19.92C323.752 20.368 324.787 20.816 326.088 21.264C326.686 21.4773 327.315 21.7547 327.976 22.096C328.638 22.4373 329.246 22.8747 329.8 23.408C330.376 23.92 330.846 24.5493 331.208 25.296C331.571 26.0213 331.752 26.896 331.752 27.92C331.752 28.9013 331.56 29.7867 331.176 30.576C330.814 31.3653 330.302 32.0373 329.64 32.592C329 33.1467 328.264 33.5733 327.432 33.872C326.622 34.1707 325.768 34.32 324.872 34.32C323.656 34.32 322.526 34.064 321.48 33.552C320.456 33.0187 319.55 32.3253 318.76 31.472C317.992 30.5973 317.363 29.6693 316.872 28.688L319.048 27.216ZM336.58 27.216C337.092 28.112 337.625 28.9013 338.18 29.584C338.756 30.2667 339.396 30.8 340.1 31.184C340.804 31.568 341.604 31.76 342.5 31.76C343.694 31.76 344.654 31.4293 345.38 30.768C346.105 30.1067 346.468 29.264 346.468 28.24C346.468 27.2373 346.233 26.4373 345.764 25.84C345.294 25.2427 344.676 24.7627 343.908 24.4C343.161 24.016 342.361 23.6747 341.508 23.376C340.953 23.184 340.334 22.9387 339.652 22.64C338.969 22.32 338.318 21.9253 337.7 21.456C337.081 20.9653 336.569 20.368 336.164 19.664C335.78 18.96 335.588 18.096 335.588 17.072C335.588 15.9627 335.865 14.9707 336.42 14.096C336.974 13.2213 337.742 12.5387 338.724 12.048C339.705 11.536 340.825 11.28 342.084 11.28C343.3 11.28 344.356 11.5147 345.252 11.984C346.169 12.432 346.948 13.0187 347.588 13.744C348.228 14.448 348.729 15.1947 349.092 15.984L346.756 17.328C346.478 16.7733 346.126 16.2293 345.7 15.696C345.273 15.1627 344.75 14.7253 344.132 14.384C343.534 14.0427 342.798 13.872 341.924 13.872C340.708 13.872 339.822 14.1707 339.268 14.768C338.713 15.344 338.436 15.9947 338.436 16.72C338.436 17.3387 338.596 17.9147 338.916 18.448C339.236 18.96 339.769 19.4507 340.516 19.92C341.284 20.368 342.318 20.816 343.62 21.264C344.217 21.4773 344.846 21.7547 345.508 22.096C346.169 22.4373 346.777 22.8747 347.332 23.408C347.908 23.92 348.377 24.5493 348.74 25.296C349.102 26.0213 349.284 26.896 349.284 27.92C349.284 28.9013 349.092 29.7867 348.708 30.576C348.345 31.3653 347.833 32.0373 347.172 32.592C346.532 33.1467 345.796 33.5733 344.964 33.872C344.153 34.1707 343.3 34.32 342.404 34.32C341.188 34.32 340.057 34.064 339.012 33.552C337.988 33.0187 337.081 32.3253 336.292 31.472C335.524 30.5973 334.894 29.6693 334.404 28.688L336.58 27.216ZM355.423 27.28L356.383 24.72H366.303L367.263 27.28H355.423ZM361.279 16.656L357.503 25.552L357.247 26.128L353.919 34H350.879L361.279 10.48L371.679 34H368.639L365.375 26.32L365.119 25.68L361.279 16.656ZM383.835 25.2V22.64H394.235C394.235 24.1973 394 25.68 393.531 27.088C393.062 28.4747 392.368 29.712 391.451 30.8C390.534 31.888 389.403 32.752 388.059 33.392C386.736 34.0107 385.222 34.32 383.515 34.32C381.894 34.32 380.39 34.0427 379.003 33.488C377.616 32.912 376.411 32.112 375.387 31.088C374.363 30.0427 373.563 28.816 372.987 27.408C372.432 26 372.155 24.464 372.155 22.8C372.155 21.136 372.432 19.6 372.987 18.192C373.563 16.784 374.363 15.568 375.387 14.544C376.411 13.4987 377.616 12.6987 379.003 12.144C380.39 11.568 381.894 11.28 383.515 11.28C384.902 11.28 386.171 11.4613 387.323 11.824C388.496 12.1867 389.542 12.72 390.459 13.424C391.398 14.128 392.187 15.0027 392.827 16.048L390.907 17.808C390.203 16.6133 389.222 15.6853 387.963 15.024C386.704 14.3413 385.222 14 383.515 14C381.936 14 380.507 14.3733 379.227 15.12C377.947 15.8667 376.923 16.9013 376.155 18.224C375.408 19.5253 375.035 21.0507 375.035 22.8C375.035 24.528 375.408 26.0533 376.155 27.376C376.923 28.6987 377.947 29.7333 379.227 30.48C380.507 31.2267 381.936 31.6 383.515 31.6C384.624 31.6 385.616 31.44 386.491 31.12C387.387 30.7787 388.155 30.3093 388.795 29.712C389.435 29.1147 389.958 28.432 390.363 27.664C390.79 26.896 391.099 26.0747 391.291 25.2H383.835ZM399.752 34V31.44H411.048V34H399.752ZM399.752 14.16V11.6H411.048V14.16H399.752ZM399.752 23.12V20.56H410.408V23.12H399.752ZM398.248 11.6H400.968V34H398.248V11.6Z" fill="#07BAC1"/>
<path d="M36.1919 2C34.0055 4.4272 27.7671 12.1356 27.7671 21.0921C27.7671 30.047 34.0047 37.757 36.1919 40.1842C38.3783 37.7562 44.6167 30.047 44.6167 21.0921C44.6167 12.1356 38.3783 4.4272 36.1919 2Z" fill="#88DBDF"/>
<path d="M19.4764 6C21.1116 6.83505 24.538 8.76958 27.79 11.7915C26.5964 14.6945 25.7444 17.9825 25.7452 21.4939C25.7452 29.8991 30.5716 37.0432 33.4596 40.5691C33.4596 40.5691 33.178 41.3632 33.0628 41.6646C30.1572 40.1865 21.5932 35.2389 18.4012 26.857C15.214 18.492 18.298 9.05248 19.4764 6Z" fill="#07BAC1"/>
<path d="M54.0584 26.857C57.2456 18.4928 54.164 9.05329 52.9848 6C51.3496 6.83505 47.9216 8.76958 44.6696 11.7915C45.8632 14.6945 46.716 17.9825 46.716 21.4931C46.716 29.8983 41.8904 37.0424 39 40.5683C39.1448 40.9854 39.2808 41.3624 39.3976 41.6613C42.3048 40.1809 50.8736 35.2196 54.0584 26.857Z" fill="#07BAC1"/>
<path d="M16.88 28.8286C15.0136 28.2821 12.9792 28 10.808 28C6.0808 28 1.8656 29.3197 0 29.9996C1.336 32.7387 5.6168 40.4036 12.9496 43.3798C15.2536 44.3113 17.8616 44.7871 20.7032 44.7871C25.3864 44.7871 29.5616 43.4955 31.4528 42.8075C28.268 41.1607 20.648 36.5796 16.88 28.8286Z" fill="#068A8F"/>
<path d="M61.6464 28C59.4736 28 57.4408 28.2829 55.5728 28.8286C51.8048 36.5804 44.1856 41.1615 41 42.8083C42.8912 43.4955 47.0672 44.7879 51.7496 44.7879C54.592 44.7879 57.2 44.3121 59.5032 43.3806C66.836 40.4044 71.1168 32.7395 72.4528 30.0004C70.588 29.3197 66.372 28 61.6464 28Z" fill="#068A8F"/>
</svg>
