<svg width="414" height="46" viewBox="0 0 414 46" fill="none" xmlns="http://www.w3.org/2000/svg">
<path d="M86.32 14.16H92.08V34H94.8V14.16H100.56V11.6H86.32V14.16ZM104.939 23.12H120.299V20.56H104.939V23.12ZM118.475 11.6V34H121.195V11.6H118.475ZM103.435 11.6V34H106.155V11.6H103.435ZM127.814 34H139.11V31.44H127.814V34ZM127.814 14.16H139.11V11.6H127.814V14.16ZM127.814 23.12H138.47V20.56H127.814V23.12ZM126.31 11.6V34H129.03V11.6H126.31ZM155.002 23.12H170.362V20.56H155.002V23.12ZM168.538 11.6V34H171.258V11.6H168.538ZM153.498 11.6V34H156.218V11.6H153.498ZM178.516 27.28H190.357L189.397 24.72H179.477L178.516 27.28ZM184.373 16.656L188.213 25.68L188.469 26.32L191.733 34H194.773L184.373 10.48L173.973 34H177.013L180.341 26.128L180.597 25.552L184.373 16.656ZM214.458 11.6V28.272L197.498 10.48V34H200.218V17.328L217.178 35.12V11.6H214.458ZM222.31 11.6V34H225.03V11.6H222.31ZM229.03 34C231.206 34 233.137 33.5307 234.822 32.592C236.507 31.6533 237.83 30.352 238.79 28.688C239.75 27.0027 240.23 25.04 240.23 22.8C240.23 20.56 239.75 18.608 238.79 16.944C237.83 15.2587 236.507 13.9467 234.822 13.008C233.137 12.0693 231.206 11.6 229.03 11.6H223.814V14.32H229.03C230.289 14.32 231.441 14.5227 232.486 14.928C233.531 15.312 234.427 15.8773 235.174 16.624C235.921 17.3493 236.497 18.2347 236.902 19.28C237.307 20.3253 237.51 21.4987 237.51 22.8C237.51 24.1013 237.307 25.2747 236.902 26.32C236.497 27.3653 235.921 28.2613 235.174 29.008C234.427 29.7333 233.531 30.2987 232.486 30.704C231.441 31.088 230.289 31.28 229.03 31.28H223.814V34H229.03ZM244.892 27.216L242.716 28.688C243.207 29.6693 243.836 30.5973 244.604 31.472C245.393 32.3253 246.3 33.0187 247.324 33.552C248.369 34.064 249.5 34.32 250.716 34.32C251.612 34.32 252.465 34.1707 253.276 33.872C254.108 33.5733 254.844 33.1467 255.484 32.592C256.145 32.0373 256.657 31.3653 257.02 30.576C257.404 29.7867 257.596 28.9013 257.596 27.92C257.596 26.896 257.415 26.0213 257.052 25.296C256.689 24.5493 256.22 23.92 255.644 23.408C255.089 22.8747 254.481 22.4373 253.82 22.096C253.159 21.7547 252.529 21.4773 251.932 21.264C250.631 20.816 249.596 20.368 248.828 19.92C248.081 19.4507 247.548 18.96 247.228 18.448C246.908 17.9147 246.748 17.3387 246.748 16.72C246.748 15.9947 247.025 15.344 247.58 14.768C248.135 14.1707 249.02 13.872 250.236 13.872C251.111 13.872 251.847 14.0427 252.444 14.384C253.063 14.7253 253.585 15.1627 254.012 15.696C254.439 16.2293 254.791 16.7733 255.068 17.328L257.404 15.984C257.041 15.1947 256.54 14.448 255.9 13.744C255.26 13.0187 254.481 12.432 253.564 11.984C252.668 11.5147 251.612 11.28 250.396 11.28C249.137 11.28 248.017 11.536 247.036 12.048C246.055 12.5387 245.287 13.2213 244.732 14.096C244.177 14.9707 243.9 15.9627 243.9 17.072C243.9 18.096 244.092 18.96 244.476 19.664C244.881 20.368 245.393 20.9653 246.012 21.456C246.631 21.9253 247.281 22.32 247.964 22.64C248.647 22.9387 249.265 23.184 249.82 23.376C250.673 23.6747 251.473 24.016 252.22 24.4C252.988 24.7627 253.607 25.2427 254.076 25.84C254.545 26.4373 254.78 27.2373 254.78 28.24C254.78 29.264 254.417 30.1067 253.692 30.768C252.967 31.4293 252.007 31.76 250.812 31.76C249.916 31.76 249.116 31.568 248.412 31.184C247.708 30.8 247.068 30.2667 246.492 29.584C245.937 28.9013 245.404 28.112 244.892 27.216ZM274.289 18.864L281.585 31.92L288.881 18.864L290.545 34H293.265L290.545 10.48L281.585 26.704L272.625 10.48L269.905 34H272.625L274.289 18.864ZM299.235 27.28H311.075L310.115 24.72H300.195L299.235 27.28ZM305.091 16.656L308.931 25.68L309.187 26.32L312.451 34H315.491L305.091 10.48L294.691 34H297.731L301.059 26.128L301.315 25.552L305.091 16.656ZM319.048 27.216L316.872 28.688C317.363 29.6693 317.992 30.5973 318.76 31.472C319.55 32.3253 320.456 33.0187 321.48 33.552C322.526 34.064 323.656 34.32 324.872 34.32C325.768 34.32 326.622 34.1707 327.432 33.872C328.264 33.5733 329 33.1467 329.64 32.592C330.302 32.0373 330.814 31.3653 331.176 30.576C331.56 29.7867 331.752 28.9013 331.752 27.92C331.752 26.896 331.571 26.0213 331.208 25.296C330.846 24.5493 330.376 23.92 329.8 23.408C329.246 22.8747 328.638 22.4373 327.976 22.096C327.315 21.7547 326.686 21.4773 326.088 21.264C324.787 20.816 323.752 20.368 322.984 19.92C322.238 19.4507 321.704 18.96 321.384 18.448C321.064 17.9147 320.904 17.3387 320.904 16.72C320.904 15.9947 321.182 15.344 321.736 14.768C322.291 14.1707 323.176 13.872 324.392 13.872C325.267 13.872 326.003 14.0427 326.6 14.384C327.219 14.7253 327.742 15.1627 328.168 15.696C328.595 16.2293 328.947 16.7733 329.224 17.328L331.56 15.984C331.198 15.1947 330.696 14.448 330.056 13.744C329.416 13.0187 328.638 12.432 327.72 11.984C326.824 11.5147 325.768 11.28 324.552 11.28C323.294 11.28 322.174 11.536 321.192 12.048C320.211 12.5387 319.443 13.2213 318.888 14.096C318.334 14.9707 318.056 15.9627 318.056 17.072C318.056 18.096 318.248 18.96 318.632 19.664C319.038 20.368 319.55 20.9653 320.168 21.456C320.787 21.9253 321.438 22.32 322.12 22.64C322.803 22.9387 323.422 23.184 323.976 23.376C324.83 23.6747 325.63 24.016 326.376 24.4C327.144 24.7627 327.763 25.2427 328.232 25.84C328.702 26.4373 328.936 27.2373 328.936 28.24C328.936 29.264 328.574 30.1067 327.848 30.768C327.123 31.4293 326.163 31.76 324.968 31.76C324.072 31.76 323.272 31.568 322.568 31.184C321.864 30.8 321.224 30.2667 320.648 29.584C320.094 28.9013 319.56 28.112 319.048 27.216ZM336.58 27.216L334.404 28.688C334.894 29.6693 335.524 30.5973 336.292 31.472C337.081 32.3253 337.988 33.0187 339.012 33.552C340.057 34.064 341.188 34.32 342.404 34.32C343.3 34.32 344.153 34.1707 344.964 33.872C345.796 33.5733 346.532 33.1467 347.172 32.592C347.833 32.0373 348.345 31.3653 348.708 30.576C349.092 29.7867 349.284 28.9013 349.284 27.92C349.284 26.896 349.102 26.0213 348.74 25.296C348.377 24.5493 347.908 23.92 347.332 23.408C346.777 22.8747 346.169 22.4373 345.508 22.096C344.846 21.7547 344.217 21.4773 343.62 21.264C342.318 20.816 341.284 20.368 340.516 19.92C339.769 19.4507 339.236 18.96 338.916 18.448C338.596 17.9147 338.436 17.3387 338.436 16.72C338.436 15.9947 338.713 15.344 339.268 14.768C339.822 14.1707 340.708 13.872 341.924 13.872C342.798 13.872 343.534 14.0427 344.132 14.384C344.75 14.7253 345.273 15.1627 345.7 15.696C346.126 16.2293 346.478 16.7733 346.756 17.328L349.092 15.984C348.729 15.1947 348.228 14.448 347.588 13.744C346.948 13.0187 346.169 12.432 345.252 11.984C344.356 11.5147 343.3 11.28 342.084 11.28C340.825 11.28 339.705 11.536 338.724 12.048C337.742 12.5387 336.974 13.2213 336.42 14.096C335.865 14.9707 335.588 15.9627 335.588 17.072C335.588 18.096 335.78 18.96 336.164 19.664C336.569 20.368 337.081 20.9653 337.7 21.456C338.318 21.9253 338.969 22.32 339.652 22.64C340.334 22.9387 340.953 23.184 341.508 23.376C342.361 23.6747 343.161 24.016 343.908 24.4C344.676 24.7627 345.294 25.2427 345.764 25.84C346.233 26.4373 346.468 27.2373 346.468 28.24C346.468 29.264 346.105 30.1067 345.38 30.768C344.654 31.4293 343.694 31.76 342.5 31.76C341.604 31.76 340.804 31.568 340.1 31.184C339.396 30.8 338.756 30.2667 338.18 29.584C337.625 28.9013 337.092 28.112 336.58 27.216ZM355.423 27.28H367.263L366.303 24.72H356.383L355.423 27.28ZM361.279 16.656L365.119 25.68L365.375 26.32L368.639 34H371.679L361.279 10.48L350.879 34H353.919L357.247 26.128L357.503 25.552L361.279 16.656ZM383.835 25.2H391.291C391.099 26.0747 390.79 26.896 390.363 27.664C389.958 28.432 389.435 29.1147 388.795 29.712C388.155 30.3093 387.387 30.7787 386.491 31.12C385.616 31.44 384.624 31.6 383.515 31.6C381.936 31.6 380.507 31.2267 379.227 30.48C377.947 29.7333 376.923 28.6987 376.155 27.376C375.408 26.0533 375.035 24.528 375.035 22.8C375.035 21.0507 375.408 19.5253 376.155 18.224C376.923 16.9013 377.947 15.8667 379.227 15.12C380.507 14.3733 381.936 14 383.515 14C385.222 14 386.704 14.3413 387.963 15.024C389.222 15.6853 390.203 16.6133 390.907 17.808L392.827 16.048C392.187 15.0027 391.398 14.128 390.459 13.424C389.542 12.72 388.496 12.1867 387.323 11.824C386.171 11.4613 384.902 11.28 383.515 11.28C381.894 11.28 380.39 11.568 379.003 12.144C377.616 12.6987 376.411 13.4987 375.387 14.544C374.363 15.568 373.563 16.784 372.987 18.192C372.432 19.6 372.155 21.136 372.155 22.8C372.155 24.464 372.432 26 372.987 27.408C373.563 28.816 374.363 30.0427 375.387 31.088C376.411 32.112 377.616 32.912 379.003 33.488C380.39 34.0427 381.894 34.32 383.515 34.32C385.222 34.32 386.736 34.0107 388.059 33.392C389.403 32.752 390.534 31.888 391.451 30.8C392.368 29.712 393.062 28.4747 393.531 27.088C394 25.68 394.235 24.1973 394.235 22.64H383.835V25.2ZM399.752 34H411.048V31.44H399.752V34ZM399.752 14.16H411.048V11.6H399.752V14.16ZM399.752 23.12H410.408V20.56H399.752V23.12ZM398.248 11.6V34H400.968V11.6H398.248Z" fill="#785825"/>
<path d="M36.1919 2C34.0055 4.4272 27.7671 12.1356 27.7671 21.0921C27.7671 30.047 34.0047 37.757 36.1919 40.1842C38.3783 37.7562 44.6167 30.047 44.6167 21.0921C44.6167 12.1356 38.3783 4.4272 36.1919 2Z" fill="#FDEAC9"/>
<path d="M19.4764 6C21.1116 6.83505 24.538 8.76958 27.79 11.7915C26.5964 14.6945 25.7444 17.9825 25.7452 21.4939C25.7452 29.8991 30.5716 37.0432 33.4596 40.5691C33.4596 40.5691 33.178 41.3632 33.0628 41.6646C30.1572 40.1865 21.5932 35.2389 18.4012 26.857C15.214 18.492 18.298 9.05248 19.4764 6Z" fill="#F8D498"/>
<path d="M54.0584 26.857C57.2456 18.4928 54.164 9.05329 52.9848 6C51.3496 6.83505 47.9216 8.76958 44.6696 11.7915C45.8632 14.6945 46.716 17.9825 46.716 21.4931C46.716 29.8983 41.8904 37.0424 39 40.5683C39.1448 40.9854 39.2808 41.3624 39.3976 41.6613C42.3048 40.1809 50.8736 35.2196 54.0584 26.857Z" fill="#F8D498"/>
<path d="M16.88 28.8286C15.0136 28.2821 12.9792 28 10.808 28C6.0808 28 1.8656 29.3197 0 29.9996C1.336 32.7387 5.6168 40.4036 12.9496 43.3798C15.2536 44.3113 17.8616 44.7871 20.7032 44.7871C25.3864 44.7871 29.5616 43.4955 31.4528 42.8075C28.268 41.1607 20.648 36.5796 16.88 28.8286Z" fill="#785825"/>
<path d="M61.6464 28C59.4736 28 57.4408 28.2829 55.5728 28.8286C51.8048 36.5804 44.1856 41.1615 41 42.8083C42.8912 43.4955 47.0672 44.7879 51.7496 44.7879C54.592 44.7879 57.2 44.3121 59.5032 43.3806C66.836 40.4044 71.1168 32.7395 72.4528 30.0004C70.588 29.3197 66.372 28 61.6464 28Z" fill="#785825"/>
</svg>
